<?xml version="1.0" standalone="no"?>
<!DOCTYPE svg PUBLIC "-//W3C//DTD SVG 20010904//EN"
 "http://www.w3.org/TR/2001/REC-SVG-20010904/DTD/svg10.dtd">
<svg version="1.0" xmlns="http://www.w3.org/2000/svg"
 width="768.000000pt" height="768.000000pt" viewBox="0 0 768.000000 768.000000"
 preserveAspectRatio="xMidYMid meet">
<metadata>
Created by potrace 1.14, written by Peter Selinger 2001-2017
</metadata>
<g transform="translate(0.000000,768.000000) scale(0.100000,-0.100000)"
fill="#000000" stroke="none">
<path d="M3805 7658 c-28 -15 -83 -77 -126 -143 -131 -196 -147 -356 -48 -469
55 -62 116 -89 211 -91 241 -7 345 179 242 435 -28 71 -120 215 -159 249 -38
33 -82 40 -120 19z m91 -145 c134 -206 157 -337 76 -422 -20 -20 -99 -39 -146
-35 -95 10 -150 68 -153 164 -1 30 2 59 5 65 4 5 7 16 9 24 3 20 36 85 46 89
4 2 7 8 7 14 0 22 97 148 114 148 6 0 25 -21 42 -47z"/>
<path d="M3128 7145 c-3 -3 -16 -8 -28 -10 -29 -6 -208 -63 -235 -76 -11 -5
-54 -20 -95 -34 -258 -84 -526 -205 -719 -322 -112 -69 -289 -192 -331 -230
-14 -13 -28 -23 -31 -23 -3 0 -17 -10 -31 -22 -13 -13 -50 -45 -81 -71 -137
-117 -309 -301 -442 -472 -76 -98 -221 -311 -265 -390 -55 -97 -150 -286 -179
-355 -18 -41 -36 -84 -41 -95 -17 -35 -71 -188 -91 -255 -11 -36 -23 -72 -26
-80 -3 -8 -7 -19 -8 -25 -2 -5 -11 -39 -20 -75 -29 -111 -65 -281 -69 -325 -2
-16 -6 -48 -9 -70 -13 -83 -16 -113 -23 -215 -11 -169 -9 -246 12 -540 2 -30
6 -66 9 -80 3 -14 7 -43 10 -65 5 -37 9 -65 20 -132 2 -16 9 -53 15 -83 6 -30
13 -66 16 -80 24 -124 97 -362 162 -530 42 -110 167 -366 223 -459 22 -34 39
-65 39 -66 0 -6 161 -247 197 -295 62 -84 78 -104 128 -163 28 -33 59 -71 70
-85 33 -43 184 -186 273 -258 82 -66 83 -67 98 -46 8 12 21 28 29 36 14 13 11
46 -4 46 -3 0 -20 13 -38 28 -17 15 -51 43 -74 62 -105 87 -243 235 -342 367
-28 37 -53 70 -56 73 -3 3 -10 12 -16 21 -5 9 -44 68 -86 130 -181 271 -306
522 -404 814 -44 129 -107 372 -118 452 -4 22 -8 52 -11 65 -7 32 -24 144 -31
213 -14 119 -19 238 -19 390 0 222 10 338 45 523 29 156 29 154 39 187 5 17
25 86 45 155 81 283 199 550 363 823 42 71 84 136 93 145 8 9 24 32 34 50 11
17 23 32 27 32 4 0 8 5 8 11 0 12 112 154 200 253 63 71 237 244 290 288 25
21 56 48 70 59 53 45 248 187 325 236 246 155 469 254 890 395 132 44 242 82
244 84 1 1 -3 22 -11 45 -14 41 -28 56 -40 44z"/>
<path d="M4526 7123 c-3 -16 -8 -38 -12 -49 -4 -17 0 -23 18 -27 24 -5 181
-53 208 -63 8 -3 16 -5 18 -5 1 1 18 -5 37 -13 20 -9 37 -15 40 -16 6 -1 13
-3 100 -34 39 -14 102 -37 140 -51 88 -32 379 -174 383 -186 2 -5 9 -9 15 -9
14 0 203 -121 298 -191 127 -95 267 -217 394 -344 143 -143 165 -168 273 -305
46 -58 90 -114 99 -124 9 -11 25 -35 36 -55 12 -20 24 -38 28 -41 6 -5 49 -71
78 -123 10 -18 37 -63 58 -102 73 -127 233 -483 247 -550 2 -8 59 -192 97
-313 6 -18 13 -45 15 -60 3 -15 11 -54 18 -87 8 -33 19 -94 26 -135 6 -41 13
-85 15 -98 24 -148 24 -538 0 -722 -2 -14 -6 -52 -10 -85 -3 -33 -8 -67 -10
-75 -3 -8 -7 -33 -10 -55 -3 -22 -8 -51 -11 -65 -2 -14 -7 -37 -9 -52 -3 -16
-7 -38 -9 -50 -2 -13 -12 -52 -21 -88 -9 -36 -19 -73 -21 -83 -2 -10 -6 -27
-9 -37 -3 -10 -8 -27 -10 -37 -10 -50 -82 -247 -127 -351 -72 -168 -153 -314
-256 -462 -50 -72 -205 -273 -237 -306 -11 -12 -34 -39 -52 -60 -18 -22 -47
-55 -65 -75 -18 -20 -67 -73 -108 -119 -41 -46 -105 -116 -142 -154 l-67 -71
37 -38 37 -38 49 53 c26 29 76 83 110 119 58 62 170 187 209 233 10 12 39 45
65 75 26 30 57 68 69 85 13 16 26 32 31 35 30 22 242 336 304 451 54 100 82
154 84 165 1 6 20 51 42 100 68 155 118 314 167 530 25 107 57 300 70 420 4
33 9 76 11 95 2 19 7 100 10 180 3 79 8 148 10 152 3 5 2 8 -3 8 -4 0 -8 39
-9 88 0 97 -9 204 -24 302 -6 36 -13 79 -15 95 -3 17 -7 41 -10 55 -3 14 -7
34 -9 45 -2 11 -14 58 -26 105 -12 47 -23 92 -25 100 -11 55 -96 297 -175 495
-4 11 -8 23 -9 27 -13 51 -236 457 -303 552 -39 55 -193 258 -213 281 -98 114
-143 161 -242 259 -241 240 -517 448 -762 575 -34 18 -77 40 -95 50 -45 25
-238 108 -331 143 -127 47 -467 158 -486 158 -10 0 -19 -11 -23 -27z"/>
<path d="M3739 6751 c-1 -7 -4 -32 -14 -126 -4 -38 -9 -72 -10 -75 -2 -3 -6
-25 -10 -50 -4 -24 -11 -52 -16 -62 -5 -10 -8 -18 -5 -18 4 0 -5 -26 -33 -95
-22 -53 -97 -200 -103 -203 -5 -2 -8 -8 -8 -13 0 -5 -66 -121 -147 -257 -220
-371 -326 -592 -359 -746 -20 -93 -25 -267 -11 -379 18 -142 124 -399 234
-569 15 -24 30 -47 33 -53 3 -5 18 -30 35 -54 25 -38 27 -45 14 -55 -75 -55
-148 -142 -178 -210 -11 -26 -19 -52 -16 -56 3 -5 2 -11 -3 -14 -9 -6 -8 -95
2 -155 15 -82 87 -217 159 -298 57 -65 176 -179 227 -219 58 -45 58 -41 15
-179 -15 -49 -27 -100 -26 -112 1 -26 -16 -33 -119 -47 -41 -6 -144 -24 -180
-31 -14 -3 -40 -8 -59 -11 -18 -3 -43 -8 -55 -10 -11 -3 -32 -7 -46 -9 -114
-19 -258 -63 -375 -116 -54 -24 -199 -127 -268 -190 -138 -127 -202 -230 -232
-375 -23 -109 -30 -404 -22 -931 l3 -192 -60 -54 c-162 -144 -204 -174 -247
-183 -8 -2 -78 -19 -155 -38 -76 -20 -155 -38 -174 -41 -19 -3 -42 -8 -50 -10
-8 -2 -28 -7 -45 -10 -16 -2 -41 -7 -54 -10 -129 -25 -312 -21 -399 9 -45 16
-152 66 -167 78 -81 65 -106 88 -137 129 -48 64 -62 109 -62 194 1 219 230
381 417 296 41 -19 97 -71 97 -91 0 -5 4 -10 9 -10 8 0 24 -64 25 -100 1 -61
-40 -127 -95 -156 -27 -14 -112 -19 -171 -10 -21 3 -28 0 -28 -12 -1 -10 -3
-34 -6 -55 -6 -42 -16 -39 121 -40 67 0 88 4 130 25 100 52 149 133 149 248 0
60 -5 86 -25 130 -35 74 -94 134 -165 168 -52 24 -71 27 -154 27 -86 0 -101
-4 -160 -32 -83 -40 -165 -125 -209 -214 -26 -53 -34 -84 -38 -148 -10 -139
30 -237 141 -346 200 -197 449 -253 806 -180 14 3 41 8 60 11 19 3 49 10 65
14 17 5 41 11 55 14 14 2 54 12 90 21 36 9 73 18 82 20 9 2 88 22 175 44 150
38 353 84 418 96 17 2 41 7 55 10 83 17 237 22 335 10 72 -9 99 -13 103 -15 3
-3 6 -4 57 -14 89 -17 474 -154 499 -177 6 -5 18 -9 28 -9 10 0 18 -5 18 -12
0 -6 3 -9 6 -6 3 4 33 -6 67 -22 34 -15 80 -35 102 -44 l40 -17 -50 -25 c-279
-137 -476 -200 -594 -188 -69 8 -137 19 -203 33 -39 9 -42 6 -54 -70 -5 -28
-12 -25 111 -46 17 -3 50 -8 73 -13 63 -11 196 -5 274 14 104 24 215 70 510
210 l57 27 73 -32 c40 -17 87 -37 103 -44 223 -98 364 -147 465 -162 95 -13
225 -5 330 20 51 13 55 16 52 41 -2 15 -7 37 -12 50 l-8 22 -86 -17 c-100 -20
-242 -22 -300 -5 -23 7 -44 13 -49 14 -30 6 -124 36 -132 42 -5 4 -26 13 -45
18 -19 6 -86 33 -148 60 -109 47 -112 50 -90 64 71 45 288 126 568 212 264 81
348 95 540 91 170 -3 189 -5 335 -41 55 -13 109 -26 119 -29 24 -6 46 -13 241
-75 88 -28 167 -53 175 -55 8 -2 44 -11 80 -20 36 -9 73 -19 83 -21 10 -2 26
-5 35 -8 9 -3 35 -8 57 -11 23 -3 52 -8 65 -10 77 -15 270 -22 340 -12 152 23
295 87 380 169 66 65 90 97 120 163 32 72 47 152 45 243 -1 68 -6 91 -33 144
-61 124 -192 220 -318 233 -166 18 -312 -70 -365 -221 -80 -226 84 -422 320
-381 18 3 37 9 42 14 13 13 -17 99 -32 94 -54 -16 -116 -11 -159 12 -62 33
-89 82 -85 157 5 94 53 167 131 201 104 47 216 22 307 -66 82 -79 108 -176 80
-298 -38 -170 -167 -292 -363 -344 -45 -11 -105 -17 -195 -17 -133 0 -192 6
-297 29 -13 3 -42 9 -66 14 -52 10 -49 8 -56 53 -14 92 -52 168 -110 221 -33
31 -141 87 -167 87 -9 0 -18 3 -21 6 -4 3 -66 26 -140 50 -73 25 -149 52 -168
60 -87 40 -180 89 -234 125 -32 21 -60 39 -62 39 -20 0 -210 189 -268 265
-100 132 -228 368 -367 675 -140 311 -254 486 -399 612 -84 74 -207 168 -219
168 -6 0 -14 6 -18 13 -4 6 -15 17 -25 22 -9 6 -52 36 -97 68 l-81 57 22 48
c65 137 177 306 453 677 271 366 403 582 481 790 4 11 8 25 9 30 2 6 8 30 15
55 17 62 19 82 20 180 1 176 -37 326 -132 515 -27 55 -57 108 -65 118 -9 9
-12 17 -8 17 4 0 1 8 -7 18 -26 29 -262 382 -310 462 -53 89 -130 263 -151
340 -13 48 -23 95 -33 165 -2 11 -6 81 -9 155 -4 74 -8 140 -9 145 -2 6 -19
10 -37 9 -72 -3 -67 5 -63 -101 3 -107 12 -213 19 -247 2 -11 6 -34 9 -51 10
-73 42 -174 86 -276 37 -85 130 -252 142 -257 4 -2 8 -8 8 -13 0 -9 89 -149
101 -159 3 -3 42 -59 86 -125 160 -239 218 -366 259 -570 3 -16 7 -67 10 -113
10 -239 -95 -462 -440 -936 -72 -98 -138 -188 -146 -200 -8 -11 -35 -48 -60
-81 -119 -156 -259 -373 -308 -478 l-23 -48 -32 23 c-57 41 -222 212 -263 273
-72 108 -88 150 -88 245 -1 65 4 94 18 123 24 48 106 130 183 182 32 22 64 45
71 52 6 6 21 15 32 18 11 3 20 11 20 16 0 5 5 9 11 9 17 0 252 163 359 250
232 188 364 346 400 480 29 109 29 209 -1 289 -6 14 -11 28 -11 31 -1 3 -6 10
-12 17 -6 6 -22 27 -36 46 -101 141 -343 177 -533 80 -56 -28 -147 -108 -147
-129 0 -8 -4 -14 -9 -14 -9 0 -49 -87 -59 -129 -3 -14 -6 -54 -6 -88 -1 -63
-15 -74 -19 -15 -1 18 -6 32 -11 32 -5 0 -7 3 -4 6 3 3 2 20 -2 37 -29 109
-32 395 -6 537 3 14 7 43 11 65 3 22 7 47 10 55 2 8 6 33 10 55 3 22 7 47 10
55 2 8 6 26 9 40 31 163 52 231 85 290 112 196 171 343 196 490 3 19 8 46 10
60 14 85 16 160 3 165 -22 8 -88 13 -89 6z m-333 -1118 c-3 -21 -10 -65 -16
-98 -42 -251 -41 -469 6 -665 19 -80 70 -223 97 -270 42 -76 71 -125 77 -130
3 -3 30 -39 61 -80 31 -41 67 -86 79 -98 19 -20 20 -26 9 -37 -17 -16 -209
-145 -215 -145 -3 0 -18 -10 -34 -22 -16 -12 -31 -20 -33 -17 -5 7 -92 142
-119 184 -32 52 -128 248 -128 264 0 6 -4 19 -9 29 -12 20 -38 104 -46 147
-40 203 -19 382 69 585 48 110 194 390 204 390 2 0 1 -17 -2 -37z m681 -467
c98 -33 171 -136 168 -241 -3 -117 0 -110 -67 -162 -102 -78 -176 -110 -250
-108 -78 2 -119 11 -183 41 -131 60 -163 163 -95 307 68 145 260 218 427 163z
m-480 -494 c40 -39 123 -86 170 -97 10 -2 32 -8 48 -13 49 -15 167 -14 218 2
26 8 47 11 47 6 0 -14 -255 -240 -271 -240 -3 0 -26 24 -50 53 -24 28 -47 54
-51 55 -5 2 -8 8 -8 13 0 5 -17 31 -37 57 -21 26 -49 70 -63 97 -14 28 -28 52
-32 53 -5 2 -8 11 -8 20 0 10 -7 26 -15 36 -8 11 -15 25 -15 30 0 6 6 2 12 -9
6 -11 30 -39 55 -63z m98 -1764 c6 -5 39 -30 75 -55 179 -129 290 -215 336
-260 55 -54 52 -45 40 -163 -17 -155 -101 -291 -231 -374 -71 -44 -91 -53
-173 -75 -54 -15 -74 -17 -77 -8 -29 88 -57 210 -72 312 -9 61 -8 316 1 365
23 123 28 148 36 170 5 14 14 44 20 68 11 42 16 44 45 20z m-210 -451 c0 -139
5 -208 20 -277 3 -14 8 -36 10 -50 3 -22 15 -68 41 -157 6 -22 3 -23 -47 -24
-94 -2 -221 1 -309 7 -516 35 -573 28 -625 -81 -10 -22 -20 -44 -21 -50 -20
-79 -23 -104 -40 -270 -3 -33 -8 -63 -10 -66 -2 -4 -6 -24 -10 -44 -17 -109
-104 -304 -188 -423 l-44 -63 -4 42 c-5 58 0 825 6 874 13 103 35 168 83 241
36 56 161 180 238 235 96 70 238 135 360 164 37 9 210 45 240 51 17 2 55 9 85
14 30 6 75 13 100 16 25 3 47 8 49 10 2 2 18 4 35 4 l31 0 0 -153z m815 -122
c38 -68 126 -245 160 -320 12 -27 55 -117 95 -200 62 -130 95 -193 166 -315
81 -141 263 -341 389 -431 135 -96 322 -187 488 -240 39 -13 72 -26 72 -29 0
-12 -389 0 -455 14 -228 48 -542 193 -845 389 -69 45 -127 84 -130 87 -3 3
-50 38 -105 79 -92 69 -305 271 -305 291 0 5 -6 15 -13 22 -20 21 -75 110 -90
148 l-15 34 72 21 c154 45 261 117 350 235 36 49 75 116 82 145 1 6 10 41 20
78 9 37 20 64 24 60 4 -4 22 -35 40 -68z m-1315 -470 c66 -3 136 -9 155 -12
19 -3 131 -6 248 -7 l213 -1 50 -95 c27 -52 53 -97 57 -100 4 -3 26 -31 49
-62 94 -126 266 -277 490 -429 69 -47 281 -179 288 -179 2 0 31 -16 65 -35 34
-19 68 -35 75 -35 7 0 15 -4 17 -8 4 -10 234 -112 252 -112 8 0 18 -4 21 -10
3 -5 15 -10 25 -10 27 0 33 -16 7 -16 -27 -1 -134 -14 -162 -20 -11 -2 -31 -6
-45 -8 -40 -6 -149 -35 -230 -60 -41 -13 -122 -38 -180 -56 -174 -54 -295
-102 -518 -207 -32 -15 -35 -15 -155 37 -385 167 -553 231 -706 270 -71 18
-100 24 -176 36 -52 9 -255 11 -303 3 -26 -4 -69 -10 -96 -13 -27 -4 -52 -9
-56 -11 -3 -2 -26 -6 -50 -10 -25 -3 -79 -15 -120 -25 l-75 -19 68 65 c184
177 306 366 371 571 23 72 28 93 41 163 3 14 7 36 9 50 3 14 8 54 11 90 12
125 29 205 49 233 16 20 80 34 146 31 25 -1 99 -5 165 -9z m2936 -1187 c23
-25 33 -46 44 -96 6 -31 6 -32 -17 -23 -13 5 -36 13 -53 17 -33 8 -34 8 -55
17 -17 6 -120 40 -135 43 -5 2 -46 13 -90 26 l-80 23 180 5 c99 3 181 7 182 8
1 1 12 -8 24 -20z"/>
</g>
</svg>
