<svg width="20" height="20" viewBox="0 0 20 20" fill="none" xmlns="http://www.w3.org/2000/svg">
<path d="M3.37574 11.1405C3.61187 11.3794 3.92299 11.4991 4.23434 11.4991C4.54076 11.4991 4.8474 11.3831 5.08258 11.1507C5.55674 10.6822 5.56134 9.91798 5.09281 9.44382L4.13442 8.47387H13.877C15.9222 8.47387 17.5861 10.1378 17.5861 12.183V12.2823C17.5861 13.2731 17.2003 14.2045 16.4997 14.905C16.0284 15.3764 16.0284 16.1406 16.4997 16.6119C16.7354 16.8476 17.0443 16.9654 17.3532 16.9654C17.662 16.9654 17.9709 16.8476 18.2066 16.6119C19.3631 15.4554 20 13.9178 20 12.2823V12.183C20 10.5474 19.3631 9.0098 18.2066 7.85331C17.0501 6.69682 15.5125 6.05991 13.877 6.05991H4.10661L5.07792 5.10017C5.55208 4.63166 5.55667 3.86746 5.08815 3.3933C4.61971 2.91917 3.85549 2.91455 3.38131 3.38307L0.35866 6.36974C0.130948 6.59474 0.00193013 6.90096 2.19923e-05 7.22105C-0.00190913 7.54115 0.123407 7.84889 0.348406 8.0766L3.37574 11.1405Z" fill="black"/>
</svg>
