<svg width="40" height="41" viewBox="0 0 40 41" fill="none" xmlns="http://www.w3.org/2000/svg">
<path d="M40 23.3175H39.9655L33.6255 8.74051C34.3924 8.79832 35.0287 8.85293 35.5066 8.8977L35.6912 6.89918C33.5693 6.70277 28.4493 6.32559 22.9091 6.21934C22.7705 5.69926 22.4952 5.23191 22.128 4.86402C21.5865 4.32082 20.8295 3.9834 20.0005 3.9834C19.1712 3.9834 18.4125 4.32082 17.8709 4.86402C17.5036 5.23191 17.2284 5.69926 17.0919 6.21934C11.552 6.32559 6.43148 6.70285 4.30805 6.89918L4.49477 8.89895C4.97016 8.85426 5.60836 8.80074 6.37336 8.74238H6.37359L0.0351562 23.3175H0C0.0046875 23.3337 0.0102344 23.3486 0.0149219 23.3636L0.001875 23.3939L0.0279688 23.4051C1.00977 26.5173 3.9175 28.775 7.35469 28.775C10.7916 28.775 13.6987 26.5179 14.6808 23.4051L14.707 23.3939L14.6941 23.3636C14.6988 23.3486 14.7045 23.3337 14.7088 23.3175H14.6743L8.27727 8.60816C10.7434 8.44785 13.9332 8.28496 17.2526 8.2216C17.4034 8.55965 17.6137 8.8648 17.8709 9.12145C18.1335 9.38613 18.4467 9.60121 18.7957 9.75402V30.9326C17.4369 30.9326 16.3783 30.9326 16.3783 30.9326C16.3783 30.9326 15.7991 34.5531 13.1913 35.1323V37.0159H26.8091V35.1323C24.2013 34.5531 23.6217 30.9326 23.6217 30.9326C23.6217 30.9326 22.5631 30.9326 21.2044 30.9326V9.75402H21.2047C21.5523 9.60121 21.8656 9.38613 22.1281 9.12145C22.3873 8.8648 22.598 8.55965 22.7483 8.2216C26.0677 8.28496 29.2569 8.44785 31.7234 8.60816L25.3263 23.3175H25.2912C25.2959 23.3337 25.3014 23.3486 25.3061 23.3636L25.293 23.3939L25.3191 23.4051C26.301 26.5173 29.2087 28.775 32.6459 28.775C36.0827 28.775 38.9898 26.5179 39.972 23.4051L39.998 23.3939L39.9853 23.3636C39.9901 23.3486 39.9957 23.3337 40 23.3175ZM13.3605 23.3175H1.34789L7.35469 9.50676L13.3605 23.3175ZM21.1348 8.12832C21.1087 8.15449 21.0826 8.17863 21.0546 8.20043C20.773 8.45152 20.4077 8.59941 20.0006 8.59941C19.593 8.59941 19.2279 8.45152 18.9445 8.20043C18.9166 8.17871 18.8905 8.15449 18.8644 8.12832C18.5735 7.83754 18.3948 7.4398 18.3948 6.99363C18.3948 6.70285 18.4709 6.43184 18.6052 6.19699C18.6776 6.0727 18.7639 5.95957 18.8644 5.8577C19.1573 5.56691 19.5548 5.38848 20.0006 5.38848C20.4462 5.38848 20.8436 5.56684 21.1348 5.8577C21.237 5.95957 21.3234 6.0727 21.394 6.19699C21.53 6.43184 21.6065 6.70285 21.6065 6.99363C21.6064 7.4398 21.4278 7.83754 21.1348 8.12832ZM26.6395 23.3175L32.6459 9.50676L38.6522 23.3175H26.6395Z" fill="#5A8D91"/>
</svg>
