<svg width="345" height="384" viewBox="0 0 345 384" fill="none" xmlns="http://www.w3.org/2000/svg">
<path d="M173.141 3.00222C171.599 3.07761 169.862 5.08163 167.882 7.83845C165.902 10.5953 163.68 14.1047 162.463 17.3652C161.246 20.6256 161.034 23.6368 161.899 26.4088C162.764 29.1808 164.706 31.7134 167.879 32.9553C171.052 34.1971 175.455 34.1481 178.546 32.8385C181.637 31.529 183.417 28.959 183.965 25.8775C184.512 22.796 183.828 19.2032 182.524 15.9106C181.221 12.618 179.3 9.62568 177.665 7.20286C176.031 4.78004 174.683 2.92683 173.141 3.00222Z" stroke="#5A8D91" stroke-width="5.15906"/>
<path d="M138.86 28.8118C125.172 33.2352 111.483 37.6586 99.6832 43.0189C87.883 48.3792 77.9712 54.676 68.8582 61.7225C59.7452 68.769 51.4315 76.5646 43.3563 86.2439C35.2811 95.9233 27.445 107.486 21.1158 120.086C14.7867 132.686 9.96475 146.324 6.91871 159.492C3.87266 172.66 2.60265 185.358 3.10782 199.274C3.61298 213.19 5.89327 228.323 9.7392 242.122C13.5851 255.921 18.9965 268.384 25.7409 280.174C32.4853 291.965 40.5623 303.081 47.3512 310.779C54.1402 318.476 59.6407 322.754 65.1412 327.033" stroke="#5A8D91" stroke-width="5.15906"/>
<path d="M206.656 28.675C219.871 32.7719 233.085 36.8688 245.749 42.9369C258.413 49.005 270.525 57.0439 282.038 67.1883C293.55 77.3326 304.461 89.5816 312.987 102.414C321.514 115.247 327.656 128.663 332.344 141.997C337.033 155.332 340.267 168.584 341.407 182.136C342.547 195.688 341.591 209.538 339.651 222.28C337.71 235.022 334.785 246.655 330.489 257.797C326.192 268.939 320.525 279.589 312.109 290.913C303.692 302.236 292.528 314.233 281.363 326.23" stroke="#5A8D91" stroke-width="5.15906"/>
<path d="M170.03 46.4427C169.423 53.1195 168.816 59.7963 166.157 67.0165C163.498 74.2366 158.788 82 153.125 91.4789C147.462 100.958 140.846 112.152 137.24 121.362C133.634 130.572 133.037 137.797 133.892 144.832C134.748 151.866 137.055 158.71 140.093 164.986C143.131 171.262 146.899 176.969 150.667 182.677" stroke="#5A8D91" stroke-width="5.15906"/>
<path d="M157.374 84.338C155.512 92.4001 153.65 100.462 152.432 108.259C151.215 116.055 150.642 123.585 151.378 131.223C152.113 138.86 154.158 146.605 157.757 153.424C161.355 160.244 166.507 166.138 171.659 172.033" stroke="#5A8D91" stroke-width="5.15906"/>
<path d="M177.305 46.2947C177.425 54.2326 177.545 62.1704 179.643 70.0404C181.742 77.9103 185.819 85.712 190.81 93.446C195.801 101.18 201.706 108.846 205.835 116.305C209.965 123.765 212.32 131.018 213.178 137.842C214.035 144.666 213.395 151.059 210.283 158.755C207.17 166.45 201.585 175.447 194.31 185.631C187.034 195.815 178.069 207.187 171.973 216.438C165.877 225.69 162.651 232.821 160.456 240.491C158.262 248.161 157.099 256.368 157.649 265.317C158.199 274.265 160.462 283.953 164.169 292.065C167.877 300.176 173.03 306.71 181.138 313.633C189.246 320.557 200.309 327.869 209.758 333.121C219.207 338.372 227.04 341.561 232.819 343.552C238.598 345.544 242.321 346.338 249.445 346.671C256.568 347.004 267.09 346.876 277.613 346.747" stroke="#5A8D91" stroke-width="5.15906"/>
<path d="M195.422 144.81C192.657 147.078 189.892 149.346 186.937 151.125C183.982 152.903 180.837 154.193 176.507 153.978C172.178 153.763 166.665 152.044 163.314 149.364C159.964 146.684 158.776 143.045 159.189 139.078C159.603 135.11 161.617 130.815 164.519 127.857C167.42 124.898 171.209 123.277 175.063 122.525C178.917 121.774 182.838 121.893 186.338 123.357C189.839 124.822 192.919 127.632 194.521 130.938C196.122 134.243 196.244 138.044 195.741 141.715C195.238 145.386 194.111 148.927 189.992 153.959C185.874 158.99 178.766 165.511 171.504 170.938C164.243 176.365 156.829 180.696 151.264 184.627C145.699 188.559 141.982 192.09 140.522 196.837C139.061 201.584 139.855 207.547 143.67 213.772C147.484 219.997 154.318 226.483 161.318 232.045C168.319 237.607 175.487 242.244 181.209 246.586C186.932 250.927 191.209 254.974 195.129 260.772C199.048 266.57 202.61 274.12 206.64 282.791C210.67 291.462 215.168 301.254 220.256 309.217C225.344 317.179 231.023 323.313 237.64 328.189C244.256 333.064 251.81 336.682 259.111 339.232C266.411 341.783 273.459 343.266 277.384 346.551C281.31 349.837 282.114 354.923 282.917 360.01" stroke="#5A8D91" stroke-width="5.15906"/>
<path d="M191.364 255.841C191.191 260.394 191.018 264.947 189.601 269.149C188.184 273.352 185.523 277.204 182.22 280.294C178.917 283.383 174.972 285.709 170.221 287.146C165.47 288.584 159.912 289.132 154.181 289.238C148.451 289.344 142.547 289.008 136.374 288.57C130.202 288.132 123.76 287.592 119.682 287.694C115.603 287.795 113.887 288.537 112.639 290.332C111.391 292.127 110.611 294.975 110.12 298.759C109.628 302.543 109.426 307.261 108.322 312.345C107.217 317.428 105.209 322.875 102.404 328.051C99.5993 333.228 95.9971 338.132 91.5806 342.7C87.1641 347.269 81.9337 351.5 76.7031 355.732" stroke="#5A8D91" stroke-width="5.15906"/>
<path d="M158.349 250.05C151.634 251.136 144.919 252.222 137.828 253.538C130.737 254.853 123.271 256.398 116.766 259.479C110.261 262.561 104.718 267.178 100.701 271.256C96.6834 275.335 94.1929 278.873 92.8308 283.635C91.4687 288.397 91.235 294.382 91.1324 301.87C91.0298 309.359 91.0584 318.351 91.1394 325.293C91.2209 332.234 91.3553 337.124 91.4897 342.015" stroke="#5A8D91" stroke-width="5.15906"/>
<path d="M23.7581 344.581C26.9689 345.132 30.1797 345.682 33.0913 344.924C36.003 344.166 38.6153 342.099 40.0634 339.262C41.5114 336.425 41.7951 332.818 40.5428 329.411C39.2905 326.004 36.5022 322.797 32.6176 321.195C28.7331 319.593 23.7526 319.596 19.39 321.722C15.0275 323.847 11.2832 328.096 9.56462 333.018C7.84605 337.939 8.15328 343.531 11.1875 348.494C14.2217 353.457 19.9828 357.79 25.8959 360.239C31.809 362.688 37.8739 363.253 45.5512 362.398C53.2285 361.544 62.5177 359.269 72.7219 356.682C82.9261 354.095 94.0446 351.196 102.513 349.779C110.982 348.362 116.8 348.428 123.351 349.503C129.902 350.578 137.187 352.663 147.877 356.95C158.568 361.238 172.664 367.727 183.077 372.245C193.491 376.764 200.222 379.311 206.327 379.97C212.432 380.629 217.911 379.4 223.39 378.171" stroke="#5A8D91" stroke-width="5.15906"/>
<path d="M321.302 345.163C319.092 345.821 316.883 346.48 314.161 345.984C311.44 345.488 308.208 343.838 306.49 340.999C304.772 338.16 304.57 334.133 305.684 330.565C306.798 326.997 309.23 323.889 312.672 322.171C316.113 320.452 320.564 320.124 324.424 321.371C328.284 322.619 331.552 325.442 333.632 328.154C335.711 330.866 336.601 333.466 336.793 336.842C336.985 340.217 336.477 344.368 334.553 348.401C332.629 352.434 329.287 356.35 324.568 359.096C319.849 361.842 313.752 363.418 306.849 363.561C299.947 363.704 292.24 362.414 285.559 360.769C278.878 359.125 273.224 357.125 266.568 355.024C259.913 352.923 252.257 350.72 244.954 349.619C237.65 348.518 230.7 348.518 223.319 349.807C215.939 351.095 208.129 353.672 201.909 355.63C195.689 357.588 191.06 358.927 182.724 362.688C174.388 366.449 162.346 372.633 153.862 376.221C145.379 379.808 140.455 380.799 135.654 380.776C130.853 380.753 126.175 379.717 121.498 378.681" stroke="#5A8D91" stroke-width="5.15906"/>
</svg>
