<svg width="40" height="41" viewBox="0 0 40 41" fill="none" xmlns="http://www.w3.org/2000/svg">
<g clip-path="url(#clip0_94_351)">
<path fill-rule="evenodd" clip-rule="evenodd" d="M17.6428 4.00073C18.8761 2.76749 20.8352 2.70258 22.1448 3.80601L22.3568 4.00073L25.5227 7.16654H29.9998C31.7571 7.16654 33.1968 8.52634 33.324 10.2511L33.3332 10.4999V14.977L36.499 18.1428C37.7323 19.3761 37.7972 21.3352 36.6937 22.6449L36.499 22.857L33.3332 26.0228V30.5C33.3332 32.2571 31.9734 33.6969 30.2486 33.8241L29.9998 33.8333H25.5227L22.3568 36.999C21.1237 38.2323 19.1646 38.2972 17.8549 37.1937L17.6428 36.999L14.477 33.8333H9.99984C8.24257 33.8333 6.8029 32.4734 6.67565 30.7487L6.66651 30.5V26.0226L3.50071 22.857C2.26749 21.6236 2.20258 19.6645 3.30601 18.3548L3.50073 18.1428L6.66651 14.9771V10.4999C6.66651 8.74261 8.02631 7.30293 9.75107 7.17569L9.99984 7.16654H14.477L17.6428 4.00073ZM25.1323 15.4708L18.058 22.545L15.1117 19.5988C14.4609 18.948 13.4056 18.948 12.7547 19.5988C12.1038 20.2496 12.1038 21.305 12.7547 21.9558L16.7617 25.9628C17.4777 26.6786 18.6385 26.6786 19.3543 25.9628L27.4893 17.8278C28.1402 17.177 28.1402 16.1217 27.4893 15.4708C26.8383 14.8199 25.7832 14.8199 25.1323 15.4708Z" fill="#5A8D91"/>
</g>
<defs>
<clipPath id="clip0_94_351">
<rect width="40" height="40" fill="white" transform="translate(0 0.5)"/>
</clipPath>
</defs>
</svg>
