<svg width="25" height="25" viewBox="0 0 25 25" fill="none" xmlns="http://www.w3.org/2000/svg">
<g clip-path="url(#clip0_143_10)">
<path opacity="0.983" fill-rule="evenodd" clip-rule="evenodd" d="M24.4766 5.30475C24.4766 5.586 24.4766 5.86725 24.4766 6.1485C24.3719 6.51379 24.1922 6.84192 23.9375 7.13287C19.3815 11.7044 14.8112 16.2592 10.2266 20.7969C9.42387 21.2737 8.64261 21.2425 7.88281 20.7032C5.54689 18.3673 3.21094 16.0313 0.875 13.6954C0.690344 13.4511 0.557532 13.1854 0.476562 12.8985C0.476562 12.6172 0.476562 12.336 0.476562 12.0547C0.918071 10.8338 1.77745 10.3728 3.05469 10.6719C3.21094 10.7501 3.36719 10.8282 3.52344 10.9063C5.37566 12.7663 7.235 14.6179 9.10156 16.461C13.2194 12.351 17.3444 8.24943 21.4766 4.15631C22.5097 3.59846 23.4082 3.76253 24.1719 4.6485C24.2885 4.86587 24.3901 5.08462 24.4766 5.30475Z" fill="white"/>
</g>
<defs>
<clipPath id="clip0_143_10">
<rect width="24" height="24" fill="white" transform="translate(0.5 0.5)"/>
</clipPath>
</defs>
</svg>
