<svg width="40" height="41" viewBox="0 0 40 41" fill="none" xmlns="http://www.w3.org/2000/svg">
<path opacity="0.5" d="M3.90957 19.2502C3.54064 18.1443 3.33301 17.0336 3.33301 15.9341C3.33301 6.0825 12.4999 1.6044 19.9997 9.66462C27.4993 1.6044 36.6663 6.08218 36.6663 15.934C36.6663 17.0336 36.4587 18.1443 36.0898 19.2502H31.0598L30.8732 19.25C29.9637 19.2485 29.1558 19.2472 28.4208 19.5745C27.6857 19.9018 27.1462 20.5033 26.5385 21.1807L26.4138 21.3197L24.6983 23.2257C24.527 23.416 24.2295 23.4105 24.0665 23.2128L18.1478 16.0386C17.9152 15.7565 17.6663 15.4547 17.423 15.2307C17.1395 14.9698 16.7205 14.6763 16.1346 14.6412C15.5488 14.606 15.0976 14.8471 14.7849 15.0722C14.5164 15.2655 14.2333 15.5354 13.9686 15.7876L11.4192 18.2157C10.6329 18.9645 10.4689 19.0922 10.2972 19.1607C10.1256 19.2293 9.91884 19.2502 8.83301 19.2502H3.90957Z" fill="#5A8D91"/>
<path d="M36.0893 19.2502H31.0595L30.8728 19.2498C29.9632 19.2485 29.1555 19.2472 28.4203 19.5745C27.6853 19.9018 27.1457 20.5033 26.5382 21.1807L26.4133 21.3195L24.698 23.2257C24.5267 23.416 24.2292 23.4105 24.0662 23.2128L18.1473 16.0386C17.9148 15.7565 17.666 15.4547 17.4225 15.2306C17.1392 14.9698 16.72 14.6763 16.1342 14.6411C15.5484 14.6059 15.0972 14.8471 14.7845 15.0722C14.5161 15.2655 14.2329 15.5353 13.9682 15.7876L11.4188 18.2157C10.6325 18.9645 10.4685 19.092 10.2969 19.1607C10.1252 19.2293 9.91845 19.2502 8.83263 19.2502H3.90918C5.63578 24.425 10.895 29.4897 14.9355 32.7845C17.1555 34.5948 18.2655 35.5 19.9993 35.5C21.7332 35.5 22.8432 34.5948 25.063 32.7845C29.1035 29.4897 34.3628 24.425 36.0893 19.2502Z" fill="#5A8D91"/>
</svg>
