<svg width="25" height="25" viewBox="0 0 25 25" fill="none" xmlns="http://www.w3.org/2000/svg">
<g clip-path="url(#clip0_94_338)">
<path fill-rule="evenodd" clip-rule="evenodd" d="M12.5 11.7188C11.2055 11.7188 10.1562 10.6695 10.1562 9.375C10.1562 8.08047 11.2055 7.03125 12.5 7.03125C13.7945 7.03125 14.8438 8.08047 14.8438 9.375C14.8438 10.6695 13.7945 11.7188 12.5 11.7188ZM12.5 5.46875C10.343 5.46875 8.59375 7.21719 8.59375 9.375C8.59375 11.5328 10.343 13.2812 12.5 13.2812C14.657 13.2812 16.4062 11.5328 16.4062 9.375C16.4062 7.21719 14.657 5.46875 12.5 5.46875ZM12.5 22.6562C11.2008 22.6633 4.6875 12.6414 4.6875 9.375C4.6875 5.06094 8.18516 1.5625 12.5 1.5625C16.8148 1.5625 20.3125 5.06094 20.3125 9.375C20.3125 12.5977 13.7789 22.6633 12.5 22.6562ZM12.5 0C7.32266 0 3.125 4.19766 3.125 9.375C3.125 13.2953 10.9414 25.0086 12.5 25C14.0344 25.0086 21.875 13.2422 21.875 9.375C21.875 4.19766 17.6773 0 12.5 0Z" fill="#80A7AA"/>
</g>
<defs>
<clipPath id="clip0_94_338">
<rect width="25" height="25" fill="white"/>
</clipPath>
</defs>
</svg>
