<svg width="20" height="20" viewBox="0 0 20 20" fill="none" xmlns="http://www.w3.org/2000/svg">
<g clip-path="url(#clip0_213_184)">
<path fill-rule="evenodd" clip-rule="evenodd" d="M10 9.37305C8.96438 9.37305 8.125 8.53367 8.125 7.49805C8.125 6.46242 8.96438 5.62305 10 5.62305C11.0356 5.62305 11.875 6.46242 11.875 7.49805C11.875 8.53367 11.0356 9.37305 10 9.37305ZM10 4.37305C8.27437 4.37305 6.875 5.7718 6.875 7.49805C6.875 9.2243 8.27437 10.623 10 10.623C11.7256 10.623 13.125 9.2243 13.125 7.49805C13.125 5.7718 11.7256 4.37305 10 4.37305ZM10 18.123C8.96063 18.1287 3.75 10.1112 3.75 7.49805C3.75 4.0468 6.54813 1.24805 10 1.24805C13.4519 1.24805 16.25 4.0468 16.25 7.49805C16.25 10.0762 11.0231 18.1287 10 18.123ZM10 -0.00195312C5.85813 -0.00195312 2.5 3.35617 2.5 7.49805C2.5 10.6343 8.75313 20.0049 10 19.998C11.2275 20.0049 17.5 10.5918 17.5 7.49805C17.5 3.35617 14.1419 -0.00195312 10 -0.00195312Z" fill="white"/>
</g>
<defs>
<clipPath id="clip0_213_184">
<rect width="20" height="20" fill="white" transform="translate(0 -0.00195312)"/>
</clipPath>
</defs>
</svg>
