<svg width="21" height="20" viewBox="0 0 21 20" fill="none" xmlns="http://www.w3.org/2000/svg">
<g clip-path="url(#clip0_213_172)">
<path opacity="0.984" fill-rule="evenodd" clip-rule="evenodd" d="M20.4805 4.31445C20.4805 8.09051 20.4805 11.8665 20.4805 15.6426C20.2792 16.3451 19.8235 16.7943 19.1133 16.9902C13.3581 17.0163 7.60285 17.0163 1.84766 16.9902C1.13743 16.7943 0.681705 16.3451 0.480469 15.6426C0.480469 11.8665 0.480469 8.09051 0.480469 4.31445C0.681705 3.61194 1.13743 3.16272 1.84766 2.9668C7.60285 2.94075 13.3581 2.94075 19.1133 2.9668C19.8235 3.16272 20.2792 3.61194 20.4805 4.31445ZM2.55078 4.1582C7.8307 4.11266 13.1171 4.10613 18.4102 4.13867C16.1304 6.43141 13.8388 8.71008 11.5352 10.9746C10.832 11.4694 10.1289 11.4694 9.42578 10.9746C7.12734 8.70871 4.83566 6.43656 2.55078 4.1582ZM1.65234 5.01758C3.34313 6.64324 5.0098 8.29688 6.65234 9.97852C4.99922 11.6512 3.33908 13.3178 1.67188 14.9785C1.65234 11.6582 1.64583 8.33793 1.65234 5.01758ZM19.2695 5.01758C19.3151 8.33133 19.3216 11.6516 19.2891 14.9785C17.6219 13.3178 15.9617 11.6512 14.3086 9.97852C15.9511 8.30996 17.6047 6.65633 19.2695 5.01758ZM7.51172 10.877C7.82727 11.1337 8.12676 11.4137 8.41016 11.7168C9.79035 12.8366 11.1706 12.8366 12.5508 11.7168C12.8313 11.4298 13.1177 11.1498 13.4102 10.877C15.0947 12.5029 16.7614 14.15 18.4102 15.8184C13.1237 15.8444 7.83723 15.8444 2.55078 15.8184C4.20032 14.1623 5.85398 12.5152 7.51172 10.877Z" fill="white"/>
</g>
<defs>
<clipPath id="clip0_213_172">
<rect width="20" height="20" fill="white" transform="translate(0.5 -0.00195312)"/>
</clipPath>
</defs>
</svg>
