<svg width="25" height="25" viewBox="0 0 25 25" fill="none" xmlns="http://www.w3.org/2000/svg">
<g clip-path="url(#clip0_94_322)">
<path opacity="0.984" fill-rule="evenodd" clip-rule="evenodd" d="M24.9766 5.39551C24.9766 10.1156 24.9766 14.8356 24.9766 19.5557C24.725 20.4338 24.1554 20.9953 23.2676 21.2402C16.0736 21.2728 8.87954 21.2728 1.68555 21.2402C0.797769 20.9953 0.228108 20.4338 -0.0234375 19.5557C-0.0234375 14.8356 -0.0234375 10.1156 -0.0234375 5.39551C0.228108 4.51737 0.797769 3.95585 1.68555 3.71094C8.87954 3.67839 16.0736 3.67839 23.2676 3.71094C24.1554 3.95585 24.725 4.51737 24.9766 5.39551ZM2.56445 5.2002C9.16436 5.14326 15.7724 5.13511 22.3887 5.17578C19.539 8.0417 16.6745 10.89 13.7949 13.7207C12.916 14.3392 12.0371 14.3392 11.1582 13.7207C8.28516 10.8883 5.42056 8.04815 2.56445 5.2002ZM1.44141 6.27442C3.55489 8.3065 5.63823 10.3735 7.69141 12.4756C5.625 14.5664 3.54982 16.6497 1.46582 18.7256C1.44141 14.5752 1.43327 10.4249 1.44141 6.27442ZM23.4629 6.27442C23.5198 10.4166 23.5279 14.567 23.4873 18.7256C21.4033 16.6497 19.3281 14.5664 17.2617 12.4756C19.3148 10.3899 21.3819 8.32285 23.4629 6.27442ZM8.76562 13.5986C9.16006 13.9196 9.53442 14.2695 9.88867 14.6484C11.6139 16.0482 13.3392 16.0482 15.0645 14.6484C15.4151 14.2897 15.7731 13.9397 16.1387 13.5986C18.2444 15.6311 20.3277 17.69 22.3887 19.7754C15.7806 19.808 9.17251 19.808 2.56445 19.7754C4.62638 17.7053 6.69346 15.6464 8.76562 13.5986Z" fill="#80A7AA"/>
</g>
<defs>
<clipPath id="clip0_94_322">
<rect width="25" height="25" fill="white"/>
</clipPath>
</defs>
</svg>
