<svg width="30" height="30" viewBox="0 0 30 30" fill="none" xmlns="http://www.w3.org/2000/svg">
<g clip-path="url(#clip0_94_192)">
<path opacity="0.952" fill-rule="evenodd" clip-rule="evenodd" d="M13.623 -0.0292969C14.5215 -0.0292969 15.4199 -0.0292969 16.3184 -0.0292969C21.5709 0.608666 25.526 3.20633 28.1836 7.76367C29.1618 9.60768 29.7575 11.5608 29.9707 13.623C29.9707 14.5215 29.9707 15.4199 29.9707 16.3184C29.3327 21.5709 26.7351 25.526 22.1777 28.1836C20.3337 29.1618 18.3806 29.7575 16.3184 29.9707C15.4199 29.9707 14.5215 29.9707 13.623 29.9707C8.37047 29.3327 4.4154 26.7351 1.75781 22.1777C0.779607 20.3337 0.183902 18.3806 -0.0292969 16.3184C-0.0292969 15.4199 -0.0292969 14.5215 -0.0292969 13.623C0.608643 8.37053 3.2063 4.41547 7.76367 1.75781C9.60768 0.779607 11.5608 0.183902 13.623 -0.0292969ZM13.7988 1.37695C18.4395 1.13492 22.2969 2.73648 25.3711 6.18164C28.434 10.026 29.2934 14.3229 27.9492 19.0723C26.4066 23.5446 23.389 26.5231 18.8965 28.0078C14.2581 29.2403 10.0589 28.381 6.29883 25.4297C2.71828 22.2687 1.10695 18.2941 1.46484 13.5059C2.19821 8.36068 4.90328 4.67902 9.58008 2.46094C10.9419 1.89592 12.3482 1.53459 13.7988 1.37695Z" fill="black"/>
<path opacity="0.976" fill-rule="evenodd" clip-rule="evenodd" d="M14.3262 8.64239C15.7831 8.5201 17.0429 8.94983 18.1055 9.93145C19.1425 11.2469 19.3574 12.6923 18.75 14.2674C18.4668 14.9127 18.0956 15.4987 17.6367 16.0252C16.8049 16.8374 15.9944 17.6675 15.2051 18.5154C16.5526 18.5447 17.9003 18.5545 19.248 18.5447C19.248 19.4627 19.248 20.3806 19.248 21.2986C16.4355 21.2986 13.623 21.2986 10.8105 21.2986C10.8008 20.5757 10.8105 19.8531 10.8398 19.1307C12.5643 17.4259 14.2245 15.6681 15.8203 13.8572C16.2432 13.2615 16.3018 12.6364 15.9961 11.9822C15.3964 11.3859 14.7226 11.298 13.9746 11.7186C13.5776 11.9947 13.2846 12.3561 13.0957 12.8025C12.2635 12.3575 11.4628 11.8693 10.6934 11.3377C11.4174 9.78415 12.6283 8.88573 14.3262 8.64239Z" fill="black"/>
</g>
<defs>
<clipPath id="clip0_94_192">
<rect width="30" height="30" fill="white"/>
</clipPath>
</defs>
</svg>
