<svg width="30" height="30" viewBox="0 0 30 30" fill="none" xmlns="http://www.w3.org/2000/svg">
<g clip-path="url(#clip0_94_184)">
<path opacity="0.952" fill-rule="evenodd" clip-rule="evenodd" d="M13.623 -0.0292969C14.5215 -0.0292969 15.4199 -0.0292969 16.3184 -0.0292969C21.5709 0.608666 25.526 3.20633 28.1836 7.76367C29.1618 9.60768 29.7575 11.5608 29.9707 13.623C29.9707 14.5215 29.9707 15.4199 29.9707 16.3184C29.3327 21.5709 26.7351 25.526 22.1777 28.1836C20.3337 29.1618 18.3806 29.7575 16.3184 29.9707C15.4199 29.9707 14.5215 29.9707 13.623 29.9707C8.37047 29.3327 4.4154 26.7351 1.75781 22.1777C0.779607 20.3337 0.183902 18.3806 -0.0292969 16.3184C-0.0292969 15.4199 -0.0292969 14.5215 -0.0292969 13.623C0.608643 8.37053 3.2063 4.41547 7.76367 1.75781C9.60768 0.779607 11.5608 0.183902 13.623 -0.0292969ZM13.7988 1.37695C18.4395 1.13492 22.2969 2.73648 25.3711 6.18164C28.434 10.026 29.2934 14.3229 27.9492 19.0723C26.4066 23.5446 23.389 26.5231 18.8965 28.0078C14.2581 29.2403 10.0589 28.381 6.29883 25.4297C2.71828 22.2687 1.10695 18.2941 1.46484 13.5059C2.19821 8.36068 4.90328 4.67902 9.58008 2.46094C10.9419 1.89592 12.3482 1.53459 13.7988 1.37695Z" fill="#5A8D91"/>
<path opacity="0.977" fill-rule="evenodd" clip-rule="evenodd" d="M14.8535 8.75977C15.7129 8.75977 16.5722 8.75977 17.4316 8.75977C17.4316 12.9004 17.4316 17.041 17.4316 21.1816C16.4746 21.1816 15.5176 21.1816 14.5605 21.1816C14.5703 18.0566 14.5605 14.9316 14.5312 11.8066C13.8104 12.043 13.078 12.2383 12.334 12.3926C12.1096 11.5734 11.9046 10.7531 11.7188 9.93164C12.7707 9.54539 13.8156 9.15475 14.8535 8.75977Z" fill="#5A8D91"/>
</g>
<defs>
<clipPath id="clip0_94_184">
<rect width="30" height="30" fill="white"/>
</clipPath>
</defs>
</svg>
