<svg width="20" height="20" viewBox="0 0 20 20" fill="none" xmlns="http://www.w3.org/2000/svg">
<g clip-path="url(#clip0_213_178)">
<path opacity="0.955" fill-rule="evenodd" clip-rule="evenodd" d="M3.61328 -0.0214844C3.8737 -0.0214844 4.1341 -0.0214844 4.39453 -0.0214844C4.60637 0.0429047 4.81469 0.12754 5.01953 0.232422C5.19586 0.353171 5.36512 0.483379 5.52734 0.623047C6.48668 1.5563 7.4177 2.51334 8.32031 3.49414C8.86969 4.4634 8.7525 5.34883 7.96875 6.15039C7.49234 6.63984 7.00406 7.11508 6.50391 7.57617C7.0118 8.62457 7.66937 9.56859 8.47656 10.4082C9.39359 11.4086 10.4157 12.2745 11.543 13.0059C11.8013 13.1579 12.0683 13.2946 12.3438 13.416C12.8825 12.9164 13.4098 12.402 13.9258 11.873C14.7826 11.1652 15.668 11.1261 16.582 11.7559C17.5391 12.7129 18.4961 13.6699 19.4531 14.627C19.761 15.0075 19.9368 15.4372 19.9805 15.916C19.9805 15.9421 19.9805 15.9681 19.9805 15.9941C19.9439 16.4355 19.7941 16.8392 19.5312 17.2051C18.8997 17.8626 18.2682 18.5202 17.6367 19.1777C17.1257 19.6157 16.5398 19.8826 15.8789 19.9785C15.5013 19.9785 15.1237 19.9785 14.7461 19.9785C13.5371 19.7991 12.3782 19.4411 11.2695 18.9043C7.37535 17.0121 4.29594 14.2191 2.03125 10.5254C1.09701 9.01188 0.445969 7.38426 0.078125 5.64258C0.0421078 5.29848 0.00955555 4.95992 -0.0195312 4.62695C-0.0195312 4.6009 -0.0195312 4.57488 -0.0195312 4.54883C-0.00142243 3.7719 0.239463 3.06878 0.703125 2.43945C1.38795 1.68951 2.1106 0.979879 2.87109 0.310547C3.11318 0.176253 3.36057 0.0655758 3.61328 -0.0214844ZM3.76953 1.0332C3.96871 1.02049 4.16402 1.04002 4.35547 1.0918C4.49648 1.16773 4.62668 1.25888 4.74609 1.36523C5.57293 2.19206 6.39973 3.01888 7.22656 3.8457C7.67238 4.28328 7.71145 4.75203 7.34375 5.25195C6.79574 5.81301 6.23586 6.35988 5.66406 6.89258C5.56629 7.00984 5.48816 7.14004 5.42969 7.2832C5.40363 7.42645 5.40363 7.56965 5.42969 7.71289C5.69988 8.40965 6.05145 9.0607 6.48438 9.66602C7.70988 11.3213 9.17473 12.7211 10.8789 13.8652C11.2695 14.0736 11.6602 14.2819 12.0508 14.4902C12.394 14.6051 12.7065 14.553 12.9883 14.334C13.6156 13.6805 14.2667 13.0555 14.9414 12.459C15.2757 12.3201 15.5882 12.3591 15.8789 12.5762C16.8099 13.5071 17.7409 14.4382 18.6719 15.3691C18.942 15.7501 18.955 16.1407 18.7109 16.541C18.0784 17.2126 17.4339 17.8701 16.7773 18.5137C16.2709 18.8584 15.711 19.0016 15.0977 18.9434C14.2196 18.8638 13.3733 18.6555 12.5586 18.3184C7.72844 16.1965 4.18023 12.7525 1.91406 7.98633C1.41316 6.92016 1.12019 5.80039 1.03516 4.62695C1.04018 4.0977 1.18993 3.61592 1.48438 3.18164C2.08871 2.53822 2.7072 1.90671 3.33984 1.28711C3.48032 1.19099 3.62354 1.10636 3.76953 1.0332Z" fill="white"/>
</g>
<defs>
<clipPath id="clip0_213_178">
<rect width="20" height="20" fill="white" transform="translate(0 -0.00195312)"/>
</clipPath>
</defs>
</svg>
