<svg width="25" height="25" viewBox="0 0 25 25" fill="none" xmlns="http://www.w3.org/2000/svg">
<g clip-path="url(#clip0_94_330)">
<path opacity="0.955" fill-rule="evenodd" clip-rule="evenodd" d="M4.51758 -0.0244141C4.8431 -0.0244141 5.1686 -0.0244141 5.49414 -0.0244141C5.75894 0.0560723 6.01934 0.161866 6.27539 0.292969C6.4958 0.443905 6.70737 0.606665 6.91016 0.78125C8.10933 1.94782 9.2731 3.14411 10.4014 4.37012C11.0881 5.58169 10.9416 6.68848 9.96191 7.69043C9.36641 8.30225 8.75605 8.89629 8.13086 9.47266C8.76572 10.7832 9.5877 11.9632 10.5967 13.0127C11.743 14.2631 13.0206 15.3455 14.4297 16.2598C14.7526 16.4498 15.0863 16.6207 15.4307 16.7725C16.1041 16.1479 16.7633 15.505 17.4082 14.8438C18.4792 13.9589 19.586 13.9101 20.7285 14.6973C21.9248 15.8936 23.1211 17.0898 24.3174 18.2861C24.7022 18.7619 24.9219 19.299 24.9766 19.8975C24.9766 19.93 24.9766 19.9625 24.9766 19.9951C24.9308 20.5469 24.7437 21.0514 24.415 21.5088C23.6256 22.3307 22.8363 23.1527 22.0469 23.9746C21.4081 24.522 20.6757 24.8557 19.8496 24.9756C19.3776 24.9756 18.9056 24.9756 18.4336 24.9756C16.9224 24.7514 15.4738 24.3038 14.0879 23.6328C9.22017 21.2675 5.3709 17.7763 2.54004 13.1592C1.37224 11.2673 0.558437 9.23276 0.0986328 7.05566C0.0536113 6.62554 0.012921 6.20234 -0.0234375 5.78613C-0.0234375 5.75356 -0.0234375 5.72105 -0.0234375 5.68848C-0.000801468 4.71732 0.300305 3.83841 0.879883 3.05176C1.73591 2.11433 2.63923 1.22729 3.58984 0.390625C3.89245 0.222757 4.20169 0.0844111 4.51758 -0.0244141ZM4.71289 1.29395C4.96187 1.27806 5.20601 1.30247 5.44531 1.36719C5.62158 1.46211 5.78433 1.57604 5.93359 1.70898C6.96714 2.74251 8.00064 3.77604 9.03418 4.80957C9.59146 5.35654 9.64028 5.94248 9.18066 6.56738C8.49565 7.2687 7.7958 7.95229 7.08105 8.61816C6.95884 8.76475 6.86118 8.92749 6.78809 9.10645C6.75552 9.2855 6.75552 9.4645 6.78809 9.64355C7.12583 10.5145 7.56528 11.3283 8.10645 12.085C9.63833 14.1541 11.4694 15.9038 13.5996 17.334C14.0879 17.5944 14.5762 17.8548 15.0645 18.1152C15.4935 18.2588 15.8841 18.1937 16.2363 17.9199C17.0205 17.1031 17.8343 16.3218 18.6777 15.5762C19.0956 15.4025 19.4862 15.4514 19.8496 15.7227C21.0133 16.8864 22.1771 18.0501 23.3408 19.2139C23.6785 19.69 23.6948 20.1783 23.3896 20.6787C22.599 21.5182 21.7934 22.3401 20.9727 23.1445C20.3396 23.5754 19.6397 23.7545 18.873 23.6816C17.7755 23.5822 16.7176 23.3218 15.6992 22.9004C9.66152 20.2481 5.22627 15.9431 2.39355 9.98535C1.76742 8.65264 1.40121 7.25293 1.29492 5.78613C1.30121 5.12456 1.48838 4.52234 1.85645 3.97949C2.61186 3.17522 3.38498 2.38583 4.17578 1.61133C4.35137 1.49118 4.53041 1.38539 4.71289 1.29395Z" fill="#80A7AA"/>
</g>
<defs>
<clipPath id="clip0_94_330">
<rect width="25" height="25" fill="white"/>
</clipPath>
</defs>
</svg>
