<svg width="62" height="70" viewBox="0 0 62 70" fill="none" xmlns="http://www.w3.org/2000/svg">
<path d="M31.124 1.0004C30.8464 1.01397 30.5338 1.37468 30.1774 1.8709C29.8211 2.36711 29.4211 2.9988 29.202 3.58566C28.9829 4.17252 28.9448 4.71453 29.1005 5.21347C29.2563 5.71242 29.6058 6.16828 30.1769 6.39181C30.7479 6.61533 31.5405 6.60651 32.0969 6.37079C32.6534 6.13508 32.9737 5.6725 33.0722 5.11784C33.1708 4.56319 33.0476 3.91651 32.813 3.32385C32.5784 2.73119 32.2326 2.19259 31.9383 1.75649C31.6441 1.3204 31.4016 0.98683 31.124 1.0004Z" stroke="white" stroke-width="1.00157"/>
<path d="M24.9541 5.64648C22.4903 6.44268 20.0265 7.23887 17.9025 8.20369C15.7785 9.16851 13.9945 10.3019 12.3542 11.5703C10.7139 12.8386 9.21743 14.2418 7.76394 15.984C6.31045 17.7262 4.89999 19.8074 3.76077 22.0754C2.62154 24.3434 1.75362 26.7981 1.20535 29.1683C0.657075 31.5384 0.428478 33.824 0.519406 36.3288C0.610334 38.8336 1.02077 41.5575 1.71302 44.0413C2.40527 46.525 3.37929 48.7684 4.59325 50.8905C5.80721 53.0127 7.26104 55.0136 8.48302 56.3992C9.705 57.7847 10.6951 58.5547 11.6851 59.3248" stroke="white" stroke-width="1.00157"/>
<path d="M37.1582 5.62109C39.5367 6.35852 41.9153 7.09594 44.1947 8.18817C46.4741 9.2804 48.6544 10.7274 50.7265 12.5533C52.7986 14.3792 54.7625 16.584 56.2973 18.8938C57.832 21.2037 58.9375 23.6184 59.7814 26.0186C60.6253 28.4187 61.2076 30.8041 61.4127 33.2433C61.6178 35.6826 61.4458 38.1755 61.0966 40.469C60.7473 42.7625 60.2208 44.8564 59.4475 46.8619C58.6742 48.8674 57.654 50.7844 56.1392 52.8227C54.6243 54.8609 52.6147 57.0202 50.6051 59.1796" stroke="white" stroke-width="1.00157"/>
<path d="M30.5648 8.81934C30.4555 10.0211 30.3462 11.2229 29.8677 12.5225C29.3891 13.8221 28.5413 15.2195 27.5219 16.9256C26.5026 18.6318 25.3119 20.6467 24.6628 22.3044C24.0137 23.9621 23.9062 25.2626 24.0602 26.5289C24.2142 27.7951 24.6295 29.027 25.1763 30.1566C25.7231 31.2862 26.4014 32.3135 27.0797 33.3408" stroke="white" stroke-width="1.00157"/>
<path d="M28.2865 15.6406C27.9514 17.0918 27.6163 18.5429 27.3971 19.9462C27.178 21.3496 27.0748 22.705 27.2073 24.0797C27.3397 25.4544 27.7078 26.8483 28.3554 28.0758C29.0031 29.3033 29.9304 30.3643 30.8577 31.4253" stroke="white" stroke-width="1.00157"/>
<path d="M31.8748 8.79297C31.8964 10.2218 31.918 11.6505 32.2957 13.0671C32.6735 14.4836 33.4073 15.8879 34.3057 17.28C35.204 18.6721 36.2668 20.0519 37.0102 21.3946C37.7535 22.7373 38.1774 24.0428 38.3318 25.2711C38.4861 26.4993 38.3709 27.6501 37.8107 29.0352C37.2504 30.4203 36.2451 32.0397 34.9356 33.8728C33.626 35.706 32.0123 37.7528 30.9151 39.418C29.8178 41.0833 29.2372 42.3669 28.8422 43.7474C28.4472 45.1279 28.2379 46.6053 28.3369 48.2159C28.4359 49.8265 28.8431 51.5704 29.5105 53.0304C30.1779 54.4904 31.1053 55.6664 32.5648 56.9126C34.0242 58.1588 36.0155 59.4751 37.7162 60.4203C39.4169 61.3655 40.8269 61.9395 41.8671 62.298C42.9073 62.6565 43.5775 62.7994 44.8597 62.8593C46.1418 62.9192 48.0358 62.8961 49.9298 62.873" stroke="white" stroke-width="1.00157"/>
<path d="M35.136 26.5255C34.6383 26.9337 34.1407 27.3419 33.6088 27.662C33.0769 27.9822 32.5108 28.2143 31.7316 28.1756C30.9523 28.1369 29.96 27.8274 29.3569 27.3451C28.7538 26.8628 28.54 26.2077 28.6144 25.4936C28.6888 24.7795 29.0514 24.0064 29.5737 23.4739C30.0959 22.9414 30.7778 22.6495 31.4716 22.5143C32.1654 22.3791 32.871 22.4004 33.501 22.6641C34.1311 22.9277 34.6856 23.4335 34.9739 24.0285C35.2621 24.6235 35.2841 25.3075 35.1935 25.9683C35.103 26.6291 34.9 27.2665 34.1588 28.1721C33.4175 29.0778 32.1381 30.2516 30.8311 31.2283C29.524 32.2051 28.1896 32.9848 27.1878 33.6924C26.1861 34.4 25.5172 35.0355 25.2543 35.89C24.9913 36.7444 25.1343 37.8178 25.8209 38.9382C26.5074 40.0587 27.7375 41.2263 28.9976 42.2274C30.2577 43.2285 31.5478 44.0631 32.5779 44.8446C33.6079 45.6261 34.3778 46.3544 35.0833 47.3981C35.7888 48.4417 36.4299 49.8006 37.1553 51.3614C37.8806 52.9221 38.6902 54.6846 39.6061 56.1178C40.522 57.5511 41.5441 58.6551 42.7351 59.5327C43.926 60.4103 45.2856 61.0614 46.5997 61.5205C47.9139 61.9796 49.1824 62.2466 49.889 62.8379C50.5956 63.4293 50.7402 64.3449 50.8848 65.2605" stroke="white" stroke-width="1.00157"/>
<path d="M34.404 46.5098C34.3728 47.3292 34.3417 48.1487 34.0867 48.9052C33.8317 49.6616 33.3527 50.355 32.7582 50.9111C32.1637 51.4672 31.4536 51.8859 30.5984 52.1446C29.7432 52.4032 28.7428 52.502 27.7113 52.521C26.6798 52.5401 25.6172 52.4796 24.5061 52.4008C23.3951 52.3219 22.2357 52.2248 21.5016 52.2431C20.7674 52.2613 20.4586 52.3948 20.2339 52.718C20.0093 53.0411 19.8688 53.5538 19.7804 54.2348C19.692 54.9158 19.6557 55.7651 19.4568 56.6801C19.2579 57.5951 18.8966 58.5756 18.3917 59.5073C17.8868 60.439 17.2385 61.3217 16.4435 62.144C15.6486 62.9663 14.7071 63.7279 13.7656 64.4896" stroke="white" stroke-width="1.00157"/>
<path d="M28.4621 45.4678C27.2534 45.6633 26.0447 45.8588 24.7684 46.0956C23.4921 46.3324 22.1483 46.6104 20.9774 47.165C19.8066 47.7196 18.8087 48.5507 18.0857 49.2848C17.3626 50.0189 16.9143 50.6558 16.6691 51.5129C16.424 52.3701 16.3819 53.4472 16.3634 54.7951C16.345 56.1431 16.3501 57.7616 16.3647 59.0111C16.3794 60.2605 16.4036 61.1407 16.4277 62.0209" stroke="white" stroke-width="1.00157"/>
<path d="M4.23701 62.4832C4.81494 62.5823 5.39287 62.6813 5.91695 62.5449C6.44103 62.4084 6.91124 62.0365 7.17189 61.5258C7.43253 61.0152 7.48359 60.3658 7.25818 59.7526C7.03276 59.1394 6.53089 58.5622 5.83169 58.2739C5.13249 57.9855 4.23602 57.986 3.45078 58.3686C2.66554 58.7512 1.99159 59.5161 1.68225 60.4018C1.37292 61.2876 1.42822 62.2942 1.97437 63.1875C2.52051 64.0808 3.55747 64.8608 4.6218 65.3016C5.68614 65.7424 6.77779 65.8441 8.15967 65.6902C9.54155 65.5364 11.2136 65.127 13.0503 64.6614C14.887 64.1957 16.8883 63.6739 18.4125 63.4188C19.9368 63.1638 20.9841 63.1756 22.1633 63.3691C23.3425 63.5627 24.6536 63.938 26.5779 64.7096C28.5021 65.4813 31.0393 66.6493 32.9137 67.4626C34.7882 68.2759 35.9997 68.7344 37.0986 68.8531C38.1975 68.9717 39.1837 68.7505 40.1699 68.5292" stroke="white" stroke-width="1.00157"/>
<path d="M57.7938 62.5877C57.3961 62.7063 56.9984 62.8248 56.5086 62.7356C56.0188 62.6463 55.437 62.3493 55.1278 61.8383C54.8186 61.3273 54.7821 60.6024 54.9827 59.9602C55.1833 59.3181 55.621 58.7586 56.2404 58.4493C56.8599 58.14 57.661 58.0808 58.3558 58.3054C59.0505 58.5299 59.6388 59.0381 60.0131 59.5263C60.3874 60.0144 60.5477 60.4825 60.5822 61.09C60.6166 61.6976 60.5254 62.4446 60.179 63.1706C59.8326 63.8965 59.2312 64.6013 58.3817 65.0956C57.5323 65.5898 56.4348 65.8735 55.1924 65.8993C53.95 65.9251 52.5628 65.6929 51.3602 65.3969C50.1577 65.1008 49.14 64.7409 47.9421 64.3627C46.7442 63.9845 45.3661 63.5881 44.0515 63.3899C42.7369 63.1917 41.4859 63.1917 40.1574 63.4236C38.8289 63.6555 37.4232 64.1194 36.3036 64.4718C35.1841 64.8242 34.3508 65.0652 32.8504 65.7422C31.35 66.4192 29.1825 67.5323 27.6555 68.178C26.1285 68.8237 25.2422 69.0021 24.378 68.998C23.5139 68.9939 22.672 68.8074 21.8301 68.6209" stroke="white" stroke-width="1.00157"/>
</svg>
