<svg width="63" height="70" viewBox="0 0 63 70" fill="none" xmlns="http://www.w3.org/2000/svg">
<path d="M31.625 1.0004C31.3474 1.01397 31.0347 1.37468 30.6784 1.8709C30.3221 2.36711 29.922 2.9988 29.703 3.58566C29.4839 4.17252 29.4458 4.71453 29.6015 5.21347C29.7572 5.71242 30.1068 6.16828 30.6779 6.39181C31.2489 6.61533 32.0414 6.60651 32.5979 6.37079C33.1543 6.13508 33.4747 5.6725 33.5732 5.11784C33.6718 4.56319 33.5485 3.91651 33.314 3.32385C33.0794 2.73119 32.7335 2.19259 32.4393 1.75649C32.1451 1.3204 31.9026 0.98683 31.625 1.0004Z" stroke="#5A8D91" stroke-width="1.00157"/>
<path d="M25.4541 5.64603C22.9903 6.44222 20.5265 7.23841 18.4025 8.20323C16.2785 9.16805 14.4945 10.3015 12.8542 11.5698C11.2139 12.8381 9.71743 14.2413 8.26394 15.9835C6.81045 17.7258 5.39999 19.807 4.26077 22.075C3.12154 24.343 2.25362 26.7976 1.70535 29.1678C1.15708 31.538 0.928478 33.8235 1.01941 36.3283C1.11033 38.8331 1.52077 41.5571 2.21302 44.0408C2.90527 46.5245 3.87929 48.7679 5.09325 50.8901C6.30721 53.0123 7.76104 55.0132 8.98302 56.3987C10.205 57.7842 11.1951 58.5543 12.1851 59.3244" stroke="#5A8D91" stroke-width="1.00157"/>
<path d="M37.6572 5.62137C40.0358 6.3588 42.4143 7.09622 44.6937 8.18845C46.9732 9.28068 49.1534 10.7276 51.2255 12.5536C53.2977 14.3795 55.2616 16.5843 56.7963 18.8941C58.3311 21.2039 59.4366 23.6187 60.2804 26.0188C61.1243 28.419 61.7066 30.8044 61.9117 33.2436C62.1169 35.6828 61.9449 38.1758 61.5956 40.4693C61.2463 42.7628 60.7198 44.8567 59.9465 46.8622C59.1732 48.8677 58.1531 50.7847 56.6382 52.8229C55.1233 54.8612 53.1137 57.0205 51.1041 59.1799" stroke="#5A8D91" stroke-width="1.00157"/>
<path d="M31.0648 8.81949C30.9555 10.0213 30.8462 11.2231 30.3677 12.5227C29.8891 13.8223 29.0413 15.2196 28.0219 16.9258C27.0026 18.632 25.8119 20.6468 25.1628 22.3046C24.5137 23.9623 24.4062 25.2628 24.5602 26.529C24.7142 27.7953 25.1295 29.0271 25.6763 30.1568C26.2231 31.2864 26.9014 32.3137 27.5797 33.341" stroke="#5A8D91" stroke-width="1.00157"/>
<path d="M28.7865 15.6405C28.4514 17.0916 28.1163 18.5428 27.8971 19.9461C27.678 21.3494 27.5748 22.7048 27.7073 24.0795C27.8397 25.4542 28.2078 26.8482 28.8554 28.0757C29.5031 29.3032 30.4304 30.3641 31.3577 31.4252" stroke="#5A8D91" stroke-width="1.00157"/>
<path d="M32.3738 8.79285C32.3954 10.2216 32.417 11.6504 32.7948 13.067C33.1725 14.4835 33.9063 15.8878 34.8047 17.2799C35.7031 18.6719 36.7659 20.0518 37.5092 21.3945C38.2526 22.7372 38.6764 24.0427 38.8308 25.2709C38.9851 26.4992 38.87 27.65 38.3097 29.0351C37.7495 30.4202 36.7442 32.0396 35.4346 33.8727C34.1251 35.7059 32.5113 37.7527 31.4141 39.4179C30.3169 41.0832 29.7362 42.3668 29.3412 43.7473C28.9462 45.1278 28.7369 46.6051 28.8359 48.2158C28.9349 49.8264 29.3422 51.5703 30.0095 53.0303C30.6769 54.4903 31.6044 55.6663 33.0638 56.9125C34.5232 58.1587 36.5145 59.475 38.2152 60.4202C39.9159 61.3653 41.326 61.9394 42.3661 62.2979C43.4063 62.6563 44.0765 62.7993 45.3587 62.8592C46.6409 62.9191 48.5348 62.896 50.4289 62.8729" stroke="#5A8D91" stroke-width="1.00157"/>
<path d="M35.635 26.5252C35.1374 26.9334 34.6397 27.3416 34.1078 27.6618C33.5759 27.9819 33.0098 28.214 32.2306 28.1753C31.4513 28.1366 30.459 27.8271 29.8559 27.3448C29.2528 26.8625 29.039 26.2075 29.1134 25.4933C29.1878 24.7792 29.5504 24.0061 30.0727 23.4736C30.595 22.9411 31.2769 22.6493 31.9706 22.514C32.6644 22.3788 33.37 22.4002 34.0001 22.6638C34.6301 22.9274 35.1847 23.4333 35.4729 24.0282C35.7611 24.6232 35.7831 25.3073 35.6926 25.968C35.602 26.6288 35.3991 27.2662 34.6578 28.1719C33.9165 29.0775 32.6371 30.2513 31.3301 31.2281C30.0231 32.2048 28.6886 32.9845 27.6869 33.6921C26.6851 34.3997 26.0163 35.0353 25.7533 35.8897C25.4903 36.7442 25.6333 37.8175 26.3199 38.938C27.0065 40.0584 28.2365 41.226 29.4966 42.2271C30.7568 43.2282 32.0469 44.0628 33.0769 44.8443C34.1069 45.6258 34.8768 46.3542 35.5823 47.3978C36.2879 48.4415 36.929 49.8004 37.6543 51.3611C38.3797 52.9218 39.1892 54.6843 40.1051 56.1176C41.021 57.5508 42.0431 58.6549 43.2341 59.5324C44.425 60.41 45.7846 61.0611 47.0988 61.5202C48.4129 61.9793 49.6814 62.2463 50.388 62.8377C51.0946 63.429 51.2392 64.3446 51.3838 65.2602" stroke="#5A8D91" stroke-width="1.00157"/>
<path d="M34.9049 46.5102C34.8738 47.3297 34.8427 48.1492 34.5877 48.9056C34.3326 49.6621 33.8537 50.3555 33.2592 50.9116C32.6647 51.4676 31.9546 51.8863 31.0994 52.145C30.2441 52.4037 29.2438 52.5024 28.2123 52.5215C27.1808 52.5406 26.1182 52.48 25.0071 52.4012C23.8961 52.3224 22.7367 52.2253 22.0026 52.2435C21.2684 52.2617 20.9596 52.3953 20.7349 52.7184C20.5103 53.0415 20.3698 53.5542 20.2814 54.2352C20.193 54.9163 20.1566 55.7656 19.9578 56.6806C19.7589 57.5955 19.3976 58.576 18.8927 59.5077C18.3878 60.4394 17.7394 61.3222 16.9445 62.1445C16.1495 62.9667 15.2081 63.7284 14.2666 64.49" stroke="#5A8D91" stroke-width="1.00157"/>
<path d="M28.9621 45.4679C27.7534 45.6634 26.5447 45.8589 25.2684 46.0957C23.9921 46.3324 22.6483 46.6105 21.4774 47.1651C20.3066 47.7197 19.3087 48.5508 18.5857 49.2849C17.8626 50.0189 17.4143 50.6559 17.1691 51.513C16.924 52.3701 16.8819 53.4473 16.8634 54.7952C16.845 56.1431 16.8501 57.7617 16.8647 59.0112C16.8794 60.2606 16.9036 61.1408 16.9277 62.021" stroke="#5A8D91" stroke-width="1.00157"/>
<path d="M4.73603 62.483C5.31396 62.5821 5.8919 62.6811 6.41598 62.5447C6.94006 62.4082 7.41027 62.0363 7.67091 61.5256C7.93155 61.015 7.98262 60.3657 7.7572 59.7524C7.53179 59.1392 7.02991 58.5621 6.33071 58.2737C5.63151 57.9854 4.73504 57.9858 3.9498 58.3684C3.16456 58.7511 2.49061 59.5159 2.18128 60.4016C1.87194 61.2874 1.92724 62.2941 2.47339 63.1874C3.01954 64.0807 4.05649 64.8606 5.12083 65.3014C6.18516 65.7422 7.27681 65.8439 8.65869 65.6901C10.0406 65.5362 11.7126 65.1268 13.5493 64.6612C15.386 64.1955 17.3873 63.6737 18.9116 63.4187C20.4359 63.1636 21.4831 63.1754 22.6623 63.369C23.8415 63.5625 25.1527 63.9378 27.0769 64.7094C29.0011 65.4811 31.5383 66.6492 33.4128 67.4625C35.2872 68.2758 36.4987 68.7343 37.5976 68.8529C38.6965 68.9715 39.6827 68.7503 40.6689 68.529" stroke="#5A8D91" stroke-width="1.00157"/>
<path d="M58.2928 62.5877C57.8951 62.7062 57.4974 62.8248 57.0076 62.7355C56.5178 62.6463 55.936 62.3493 55.6268 61.8383C55.3176 61.3273 55.2811 60.6024 55.4817 59.9602C55.6823 59.318 56.12 58.7586 56.7394 58.4492C57.3589 58.1399 58.16 58.0808 58.8548 58.3053C59.5496 58.5298 60.1379 59.0381 60.5121 59.5262C60.8864 60.0144 61.0467 60.4824 61.0812 61.09C61.1157 61.6975 61.0244 62.4446 60.678 63.1705C60.3317 63.8964 59.7302 64.6013 58.8807 65.0955C58.0313 65.5898 56.9338 65.8735 55.6914 65.8993C54.449 65.925 53.0618 65.6929 51.8593 65.3968C50.6567 65.1007 49.639 64.7408 48.4411 64.3626C47.2432 63.9844 45.8652 63.588 44.5506 63.3898C43.236 63.1916 41.9849 63.1916 40.6564 63.4235C39.328 63.6555 37.9222 64.1193 36.8027 64.4718C35.6831 64.8242 34.8499 65.0651 33.3494 65.7421C31.849 66.4192 29.6815 67.5322 28.1545 68.1779C26.6275 68.8237 25.7412 69.002 24.877 68.9979C24.0129 68.9939 23.171 68.8073 22.3291 68.6209" stroke="#5A8D91" stroke-width="1.00157"/>
</svg>
